<?xml version="1.0" encoding="UTF-8" standalone="no"?>
<!-- Created with Inkscape (http://www.inkscape.org/) -->

<svg
   version="1.1"
   id="svg2"
   width="805.92145"
   height="156.65146"
   viewBox="0 0 805.92145 156.65146"
   sodipodi:docname="Logo_ETSETB_tight.svg"
   inkscape:version="1.2.2 (b0a8486541, 2022-12-01)"
   xmlns:inkscape="http://www.inkscape.org/namespaces/inkscape"
   xmlns:sodipodi="http://sodipodi.sourceforge.net/DTD/sodipodi-0.dtd"
   xmlns="http://www.w3.org/2000/svg"
   xmlns:svg="http://www.w3.org/2000/svg">
  <defs
     id="defs6">
    <clipPath
       clipPathUnits="userSpaceOnUse"
       id="clipPath24">
      <path
         d="M 0,170.079 H 637.795 V 0 H 0 Z"
         id="path22" />
    </clipPath>
  </defs>
  <sodipodi:namedview
     id="namedview4"
     pagecolor="#ffffff"
     bordercolor="#666666"
     borderopacity="1.0"
     inkscape:showpageshadow="2"
     inkscape:pageopacity="0.0"
     inkscape:pagecheckerboard="0"
     inkscape:deskcolor="#d1d1d1"
     showgrid="false"
     inkscape:zoom="0.81374111"
     inkscape:cx="119.20253"
     inkscape:cy="158.52708"
     inkscape:window-width="1920"
     inkscape:window-height="1051"
     inkscape:window-x="0"
     inkscape:window-y="0"
     inkscape:window-maximized="1"
     inkscape:current-layer="g10">
    <inkscape:page
       x="0"
       y="0"
       id="page8"
       width="805.92145"
       height="156.65146" />
  </sodipodi:namedview>
  <g
     id="g10"
     inkscape:groupmode="layer"
     inkscape:label="Page 1"
     transform="matrix(1.3333333,0,0,-1.3333333,-21.783866,194.87706)">
    <text
       xml:space="preserve"
       transform="matrix(1,0,0,-1,146.4419,52.0332)"
       style="font-variant:normal;font-weight:bold;font-stretch:normal;font-size:22px;font-family:'HelveticaNeueLT Std';-inkscape-font-specification:HelveticaNeueLTStd-Bd;writing-mode:lr-tb;fill:#231f20;fill-opacity:1;fill-rule:nonzero;stroke:none"
       id="text16"><tspan
         x="0 14.256 26.07 38.698002 52.139999 57.816002 70.444 76.559998 90.001999 102.63 115.258 128.304 133.98 146.608 159.23599 165.35201 179.63 192.67599 206.118 218.746 227.304 232.98 246.422 254.98 261.09601 274.53799 280.65399 294.91 307.95599 321.39801 327.07401 340.12 351.53799 364.16599 372.724 378.39999"
         y="0"
         sodipodi:role="line"
         id="tspan12">Escola Tècnica Superior d’Enginyeria</tspan><tspan
         x="0 13.442 26.07 32.186001 45.627998 58.256001 63.931999 76.559998 89.188004 102.63 122.562 135.608 148.65401 154.33 166.95799 179.586 192.214 197.89 211.332 217.448 230.89 243.51801 249.634 265.12201 277.75 286.30801 298.936 311.564 317.23999 330.68201 343.728"
         y="23.143999"
         sodipodi:role="line"
         id="tspan14">de Telecomunicació de Barcelona</tspan></text>
    <g
       id="g18">
      <g
         id="g20"
         clip-path="url(#clipPath24)">
        <g
           id="g26"
           transform="translate(90.5039,114.7988)">
          <path
             d="m 0,0 c -4.367,0 -7.889,3.535 -7.889,7.883 0,4.346 3.522,7.885 7.889,7.885 4.346,0 7.881,-3.539 7.881,-7.885 C 7.881,3.535 4.346,0 0,0 m 0,-18.68 c -4.367,0 -7.889,3.535 -7.889,7.881 0,4.356 3.522,7.881 7.889,7.881 4.346,0 7.881,-3.525 7.881,-7.881 0,-4.346 -3.535,-7.881 -7.881,-7.881 m 0,-19.174 c -4.367,0 -7.889,3.524 -7.889,7.875 0,4.36 3.522,7.887 7.889,7.887 4.346,0 7.881,-3.527 7.881,-7.887 0,-4.351 -3.535,-7.875 -7.881,-7.875 m 5.947,-12.199 c -1.806,1.518 -2.521,1.407 -3.945,1.407 -2.764,0 -4.688,-2.098 -4.688,-5.092 0,-3.002 1.952,-5.092 4.717,-5.092 1.494,0 2.24,0.203 3.916,1.447 v -4.726 c -1.74,-0.848 -2.73,-1.096 -4.41,-1.096 -5.508,0 -9.387,3.914 -9.387,9.467 0,5.508 3.965,9.584 9.334,9.584 1.643,0 2.715,-0.268 4.463,-1.121 z m -19.043,-5.789 c -1.015,-0.719 -2.168,-0.994 -5.117,-0.994 l -1.539,0.037 v -5.972 h -4.623 v 18.238 h 7.639 c 3.722,0 6.023,-2.246 6.023,-6.281 0,-2.157 -0.842,-3.959 -2.383,-5.028 m -5.625,33.75 c 4.356,0 7.883,-3.527 7.883,-7.887 0,-4.351 -3.527,-7.875 -7.883,-7.875 -4.351,0 -7.879,3.524 -7.879,7.875 0,4.36 3.528,7.887 7.879,7.887 m -9.865,-33.531 c 0,-1.936 -0.064,-4.326 -2.605,-6.117 -1.67,-1.172 -3.631,-1.422 -5.409,-1.422 -1.777,0 -3.732,0.25 -5.404,1.422 -2.547,1.791 -2.617,4.181 -2.617,6.117 v 11.09 h 5.312 V -55.6 c 0.014,-1.048 0.112,-1.875 0.93,-2.545 0.566,-0.468 1.049,-0.623 1.785,-0.625 0.735,0.002 1.211,0.157 1.772,0.625 0.808,0.67 0.91,1.497 0.937,2.545 v 11.067 h 5.299 z m -9.291,33.531 c 4.352,0 7.887,-3.527 7.887,-7.887 0,-4.351 -3.535,-7.875 -7.887,-7.875 -4.359,0 -7.885,3.524 -7.885,7.875 0,4.36 3.526,7.887 7.885,7.887 m 0,19.174 c 4.352,0 7.887,-3.525 7.887,-7.881 0,-4.346 -3.535,-7.881 -7.887,-7.881 -4.359,0 -7.885,3.535 -7.885,7.881 0,4.356 3.526,7.881 7.885,7.881 m 0,18.686 c 4.352,0 7.887,-3.539 7.887,-7.885 0,-4.348 -3.535,-7.883 -7.887,-7.883 -4.359,0 -7.885,3.535 -7.885,7.883 0,4.346 3.526,7.885 7.885,7.885 m 19.156,-18.686 c 4.356,0 7.883,-3.525 7.883,-7.881 0,-4.346 -3.527,-7.881 -7.883,-7.881 -4.351,0 -7.879,3.535 -7.879,7.881 0,4.356 3.528,7.881 7.879,7.881 m 0,18.686 c 4.356,0 7.883,-3.539 7.883,-7.885 0,-4.348 -3.527,-7.883 -7.883,-7.883 -4.351,0 -7.879,3.535 -7.879,7.883 0,4.346 3.528,7.885 7.879,7.885 m -0.222,15.591 c -30.5,0 -55.223,-24.726 -55.223,-55.224 0,-30.504 24.723,-55.225 55.223,-55.225 30.506,0 55.232,24.721 55.232,55.225 0,30.498 -24.726,55.224 -55.232,55.224 m 1.3,-79.877 h -2.05 v -4.275 h 2.109 c 1.367,0 1.922,1.072 1.895,2.207 -0.034,1.106 -0.475,2.068 -1.954,2.068"
             style="fill:#0f80cc;fill-opacity:1;fill-rule:nonzero;stroke:none"
             id="path28" />
        </g>
        <g
           id="g30"
           transform="translate(156.7754,120.8906)">
          <path
             d="m 0,0 c 0,-2.188 -0.813,-3.043 -2.898,-3.043 -2.54,0 -2.883,1.539 -2.883,3.043 v 8.93 h -3.25 V 0 c 0,-3.789 2.123,-5.797 6.133,-5.797 3.97,0 6.152,2.061 6.152,5.797 V 8.93 H 0 Z"
             style="fill:#0f80cc;fill-opacity:1;fill-rule:nonzero;stroke:none"
             id="path32" />
        </g>
        <g
           id="g34"
           transform="translate(173.082,120.3262)">
          <path
             d="M 0,0 -5.891,9.471 -5.908,9.494 H -9.119 V -4.891 h 3.055 v 9.479 l 5.871,-9.451 0.019,-0.028 H 3.055 V 9.494 H 0 Z"
             style="fill:#0f80cc;fill-opacity:1;fill-rule:nonzero;stroke:none"
             id="path36" />
        </g>
        <path
           d="m 184.4,129.82 h -3.252 v -14.385 h 3.252 z"
           style="fill:#0f80cc;fill-opacity:1;fill-rule:nonzero;stroke:none"
           id="path38" />
        <g
           id="g40"
           transform="translate(192.5254,115.4355)">
          <path
             d="m 0,0 h 3.617 l 4.752,14.307 0.027,0.078 H 5.037 L 1.84,4.42 -1.318,14.385 h -3.358 l 4.66,-14.346 z"
             style="fill:#0f80cc;fill-opacity:1;fill-rule:nonzero;stroke:none"
             id="path42" />
        </g>
        <g
           id="g44"
           transform="translate(215.1406,118.1895)">
          <path
             d="m 0,0 h -7.695 v 3.385 h 6.914 v 2.553 h -6.914 v 2.937 h 7.533 v 2.756 H -10.951 V -2.754 H 0 Z"
             style="fill:#0f80cc;fill-opacity:1;fill-rule:nonzero;stroke:none"
             id="path46" />
        </g>
        <g
           id="g48"
           transform="translate(222.2832,127.2715)">
          <path
             d="m 0,0 h 3.385 c 1.412,0 2.101,-0.631 2.101,-1.924 0,-1.351 -0.67,-1.982 -2.101,-1.982 H 0 Z m 8.582,-8.881 c -0.008,0.178 -0.016,0.338 -0.027,0.488 -0.129,1.889 -0.793,2.991 -2.014,3.36 1.455,0.627 2.195,1.836 2.195,3.588 0,2.314 -1.783,3.994 -4.236,3.994 H -3.25 V -11.836 H 0 v 5.576 h 3.084 c 1.486,0 2.092,-0.551 2.324,-2.109 0.049,-0.371 0.08,-0.766 0.112,-1.156 0.064,-0.817 0.13,-1.659 0.39,-2.278 l 0.016,-0.033 h 3.281 l -0.061,0.088 c -0.462,0.66 -0.521,1.934 -0.564,2.867"
             style="fill:#0f80cc;fill-opacity:1;fill-rule:nonzero;stroke:none"
             id="path50" />
        </g>
        <g
           id="g52"
           transform="translate(241.9688,123.9121)">
          <path
             d="m 0,0 -0.441,0.111 c -3.307,0.852 -3.905,1.002 -3.905,2.024 0,1.154 1.133,1.564 2.108,1.564 1.799,0 2.676,-0.672 2.759,-2.109 L 0.527,1.537 H 3.672 V 1.59 c 0,2.916 -2.158,4.66 -5.772,4.66 -2.677,0 -5.392,-1.504 -5.392,-4.375 0,-2.746 2.219,-3.564 4.297,-4.113 0.306,-0.08 0.617,-0.157 0.92,-0.235 1.757,-0.427 3.279,-0.798 3.279,-2.07 0,-1.6 -2.088,-1.719 -2.723,-1.719 -1.945,0 -3.103,0.963 -3.103,2.58 v 0.057 h -3.153 v -0.057 c -0.013,-1.382 0.418,-2.529 1.295,-3.414 1.096,-1.107 2.815,-1.722 4.838,-1.722 3.697,0 5.992,1.777 5.992,4.638 C 4.15,-1.021 1.135,-0.279 0,0"
             style="fill:#0f80cc;fill-opacity:1;fill-rule:nonzero;stroke:none"
             id="path54" />
        </g>
        <path
           d="m 253.307,129.82 h -3.252 v -14.385 h 3.252 z"
           style="fill:#0f80cc;fill-opacity:1;fill-rule:nonzero;stroke:none"
           id="path56" />
        <g
           id="g58"
           transform="translate(260.5117,115.4355)">
          <path
             d="m 0,0 h 3.254 v 11.629 h 4.277 v 2.756 H -4.275 V 11.629 H 0 Z"
             style="fill:#0f80cc;fill-opacity:1;fill-rule:nonzero;stroke:none"
             id="path60" />
        </g>
        <g
           id="g62"
           transform="translate(276.7539,121.0684)">
          <path
             d="m 0,0 h -3.541 l 1.797,5.064 z M 5.314,-5.633 -0.049,8.713 -0.064,8.752 H -3.359 L -8.789,-5.555 -8.82,-5.633 h 3.3 l 1.12,3.178 h 5.254 l 1.082,-3.178 z"
             style="fill:#0f80cc;fill-opacity:1;fill-rule:nonzero;stroke:none"
             id="path64" />
        </g>
        <g
           id="g66"
           transform="translate(293.9238,129.8203)">
          <path
             d="m 0,0 h -11.805 v -2.756 h 4.278 v -11.629 h 3.25 V -2.756 H 0 Z"
             style="fill:#0f80cc;fill-opacity:1;fill-rule:nonzero;stroke:none"
             id="path68" />
        </g>
        <g
           id="g70"
           transform="translate(307.3887,127.2715)">
          <path
             d="m 0,0 h 2.387 c 1.336,0 2.701,-0.248 2.701,-2.084 0,-1.834 -1.365,-2.084 -2.701,-2.084 H 0 Z m 0,-6.719 h 3.246 c 3.68,0 4.994,2.393 4.994,4.635 0,2.24 -1.314,4.633 -4.994,4.633 H -3.25 V -11.836 H 0 Z"
             style="fill:#0f80cc;fill-opacity:1;fill-rule:nonzero;stroke:none"
             id="path72" />
        </g>
        <g
           id="g74"
           transform="translate(324.3159,117.8477)">
          <path
             d="m 0,0 c -2.816,0 -3.822,2.439 -3.822,4.723 0,1.134 0.277,4.838 3.822,4.838 3.547,0 3.82,-3.704 3.82,-4.838 C 3.82,2.439 2.818,0 0,0 m 7.076,4.723 c 0,4.539 -2.846,7.591 -7.076,7.591 -4.232,0 -7.072,-3.052 -7.072,-7.591 0,-4.401 2.908,-7.477 7.072,-7.477 4.166,0 7.076,3.076 7.076,7.477"
             style="fill:#0f80cc;fill-opacity:1;fill-rule:nonzero;stroke:none"
             id="path76" />
        </g>
        <g
           id="g78"
           transform="translate(337.478,129.8203)">
          <path
             d="M 0,0 H -3.252 V -14.385 H 6.955 v 2.754 H 0 Z"
             style="fill:#0f80cc;fill-opacity:1;fill-rule:nonzero;stroke:none"
             id="path80" />
        </g>
        <path
           d="m 347.246,115.436 h 3.254 v 14.385 h -3.254 z"
           style="fill:#0f80cc;fill-opacity:1;fill-rule:nonzero;stroke:none"
           id="path82" />
        <g
           id="g84"
           transform="translate(353.605,127.0645)">
          <path
             d="m 0,0 h 4.283 v -11.629 h 3.25 V 0 h 4.278 V 2.756 H 0 Z"
             style="fill:#0f80cc;fill-opacity:1;fill-rule:nonzero;stroke:none"
             id="path86" />
        </g>
        <g
           id="g88"
           transform="translate(371.562,121.5742)">
          <path
             d="M 0,0 H 6.914 V 2.553 H 0 V 5.49 H 7.531 V 8.246 H -3.254 V -6.139 H 7.695 v 2.754 H 0 Z"
             style="fill:#0f80cc;fill-opacity:1;fill-rule:nonzero;stroke:none"
             id="path90" />
        </g>
        <g
           id="g92"
           transform="translate(375.0894,130.9883)">
          <path
             d="M 0,0 -1.996,2.951 H -5.307 L -2.123,0.014 Z"
             style="fill:#0f80cc;fill-opacity:1;fill-rule:nonzero;stroke:none"
             id="path94" />
        </g>
        <g
           id="g96"
           transform="translate(391.8667,120.9922)">
          <path
             d="m 0,0 c -0.258,-1.996 -1.418,-3.145 -3.184,-3.145 -2.816,0 -3.82,2.44 -3.82,4.723 0,1.135 0.279,4.838 3.82,4.838 1.549,0 2.866,-1.049 3.063,-2.451 l 0.01,-0.043 H 3.035 L 3.033,3.982 C 2.67,7.129 0.229,9.17 -3.184,9.17 c -4.23,0 -7.07,-3.053 -7.07,-7.592 0,-4.4 2.906,-7.476 7.07,-7.476 3.53,0 6.012,2.314 6.334,5.888 l 0.008,0.065 h -3.15 z"
             style="fill:#0f80cc;fill-opacity:1;fill-rule:nonzero;stroke:none"
             id="path98" />
        </g>
        <g
           id="g100"
           transform="translate(406.9507,120.3262)">
          <path
             d="M 0,0 -5.896,9.471 -5.91,9.494 H -9.119 V -4.891 h 3.055 v 9.473 l 5.871,-9.445 0.017,-0.028 H 3.049 V 9.494 H 0 Z"
             style="fill:#0f80cc;fill-opacity:1;fill-rule:nonzero;stroke:none"
             id="path102" />
        </g>
        <path
           d="m 414.615,115.436 h 3.254 v 14.385 h -3.254 z"
           style="fill:#0f80cc;fill-opacity:1;fill-rule:nonzero;stroke:none"
           id="path104" />
        <g
           id="g106"
           transform="translate(431.5112,120.9922)">
          <path
             d="m 0,0 c -0.256,-1.996 -1.416,-3.145 -3.184,-3.145 -2.814,0 -3.818,2.44 -3.818,4.723 0,1.135 0.275,4.838 3.818,4.838 1.553,0 2.87,-1.049 3.065,-2.451 L -0.113,3.922 H 3.039 L 3.031,3.982 C 2.668,7.129 0.232,9.17 -3.184,9.17 c -4.228,0 -7.07,-3.053 -7.07,-7.592 0,-4.4 2.908,-7.476 7.07,-7.476 3.528,0 6.014,2.314 6.338,5.888 L 3.156,0.055 H 0.004 Z"
             style="fill:#0f80cc;fill-opacity:1;fill-rule:nonzero;stroke:none"
             id="path108" />
        </g>
        <g
           id="g110"
           transform="translate(444.5894,121.0684)">
          <path
             d="m 0,0 h -3.537 l 1.799,5.064 z M -0.059,8.752 H -3.354 L -8.789,-5.555 -8.816,-5.633 h 3.3 l 1.12,3.178 h 5.255 l 1.08,-3.178 H 5.318 L -0.047,8.713 Z"
             style="fill:#0f80cc;fill-opacity:1;fill-rule:nonzero;stroke:none"
             id="path112" />
        </g>
        <g
           id="g114"
           transform="translate(461.8276,127.0645)">
          <path
             d="m 0,0 h 2.184 c 2.81,0 4.062,-1.434 4.062,-4.656 0,-3.809 -2.449,-4.219 -3.498,-4.219 H 0 Z m 2.965,2.756 h -6.213 v -14.385 h 6.213 c 4.092,0 6.533,2.721 6.533,7.274 0,4.453 -2.441,7.111 -6.533,7.111"
             style="fill:#0f80cc;fill-opacity:1;fill-rule:nonzero;stroke:none"
             id="path116" />
        </g>
        <g
           id="g118"
           transform="translate(477.4331,121.5742)">
          <path
             d="M 0,0 H 6.914 V 2.553 H 0 V 5.49 H 7.535 V 8.246 H -3.254 V -6.139 H 7.691 v 2.754 H 0 Z"
             style="fill:#0f80cc;fill-opacity:1;fill-rule:nonzero;stroke:none"
             id="path120" />
        </g>
        <g
           id="g122"
           transform="translate(503.8589,120.9922)">
          <path
             d="m 0,0 c -0.258,-1.996 -1.412,-3.145 -3.184,-3.145 -2.816,0 -3.82,2.44 -3.82,4.723 0,1.135 0.279,4.838 3.82,4.838 1.551,0 2.868,-1.049 3.063,-2.451 l 0.01,-0.043 H 3.035 L 3.033,3.982 C 2.67,7.129 0.23,9.17 -3.184,9.17 c -4.23,0 -7.07,-3.053 -7.07,-7.592 0,-4.4 2.906,-7.476 7.07,-7.476 3.524,0 6.012,2.314 6.336,5.888 L 3.158,0.055 H 0.006 Z"
             style="fill:#0f80cc;fill-opacity:1;fill-rule:nonzero;stroke:none"
             id="path124" />
        </g>
        <g
           id="g126"
           transform="translate(516.7378,121.0684)">
          <path
             d="m 0,0 h -3.537 l 1.799,5.064 z M -0.059,8.752 H -3.354 L -8.789,-5.555 -8.816,-5.633 h 3.3 l 1.12,3.178 h 5.255 l 1.08,-3.178 H 5.318 L -0.047,8.713 Z"
             style="fill:#0f80cc;fill-opacity:1;fill-rule:nonzero;stroke:none"
             id="path128" />
        </g>
        <g
           id="g130"
           transform="translate(533.9136,129.8203)">
          <path
             d="m 0,0 h -11.807 v -2.756 h 4.28 v -11.629 h 3.25 V -2.756 H 0 Z"
             style="fill:#0f80cc;fill-opacity:1;fill-rule:nonzero;stroke:none"
             id="path132" />
        </g>
        <g
           id="g134"
           transform="translate(542.4604,121.0684)">
          <path
             d="m 0,0 h -3.537 l 1.799,5.064 z M -0.059,8.752 H -3.354 L -8.789,-5.555 -8.816,-5.633 h 3.3 l 1.12,3.178 h 5.255 l 1.08,-3.178 H 5.32 L -0.047,8.713 Z"
             style="fill:#0f80cc;fill-opacity:1;fill-rule:nonzero;stroke:none"
             id="path136" />
        </g>
        <g
           id="g138"
           transform="translate(553.2808,129.8203)">
          <path
             d="M 0,0 H -3.254 V -14.385 H 6.959 v 2.754 H 0 Z"
             style="fill:#0f80cc;fill-opacity:1;fill-rule:nonzero;stroke:none"
             id="path140" />
        </g>
        <g
           id="g142"
           transform="translate(570.6831,120.8906)">
          <path
             d="m 0,0 c 0,-2.188 -0.813,-3.043 -2.898,-3.043 -2.54,0 -2.883,1.539 -2.883,3.043 V 8.93 H -9.035 V 0 c 0,-3.789 2.121,-5.797 6.137,-5.797 3.964,0 6.152,2.061 6.152,5.797 V 8.93 H 0 Z"
             style="fill:#0f80cc;fill-opacity:1;fill-rule:nonzero;stroke:none"
             id="path144" />
        </g>
        <g
           id="g146"
           transform="translate(587.3101,120.3262)">
          <path
             d="M 0,0 -5.896,9.471 -5.912,9.494 H -9.119 V -4.891 h 3.056 v 9.473 l 5.87,-9.445 0.017,-0.028 H 3.049 V 9.494 H 0 Z"
             style="fill:#0f80cc;fill-opacity:1;fill-rule:nonzero;stroke:none"
             id="path148" />
        </g>
        <g
           id="g150"
           transform="translate(606.3257,129.8203)">
          <path
             d="M 0,0 H -3.633 L -6.914,-5.582 -10.225,0 h -3.668 l 5.299,-8.771 v -5.614 h 3.252 l -0.008,5.502 z"
             style="fill:#0f80cc;fill-opacity:1;fill-rule:nonzero;stroke:none"
             id="path152" />
        </g>
        <g
           id="g154"
           transform="translate(614.3472,121.0684)">
          <path
             d="m 0,0 h -3.539 l 1.801,5.064 z M -0.045,8.713 -0.059,8.752 H -3.354 L -8.789,-5.555 -8.814,-5.633 h 3.3 l 1.116,3.178 h 5.257 l 1.08,-3.178 h 3.379 z"
             style="fill:#0f80cc;fill-opacity:1;fill-rule:nonzero;stroke:none"
             id="path156" />
        </g>
        <g
           id="g158"
           transform="translate(156.0391,99.9219)">
          <path
             d="m 0,0 c -0.463,-0.365 -1.236,-0.553 -2.293,-0.553 h -3.748 v 4.426 h 3.748 c 0.398,0 0.789,-0.025 1.16,-0.07 C -0.775,3.756 -0.455,3.652 -0.184,3.5 0.084,3.346 0.295,3.131 0.451,2.844 0.607,2.557 0.686,2.164 0.686,1.672 0.686,0.918 0.463,0.375 0,0 m -6.041,-2.27 h 4.285 c 0.389,0 0.774,-0.035 1.151,-0.101 0.363,-0.076 0.689,-0.201 0.968,-0.379 0.276,-0.168 0.502,-0.414 0.672,-0.711 0.168,-0.293 0.248,-0.668 0.248,-1.133 0,-0.777 -0.228,-1.396 -0.685,-1.838 -0.467,-0.443 -1.114,-0.664 -1.934,-0.664 h -4.705 z m 6.697,1.09 c 0.635,0.274 1.135,0.678 1.485,1.211 0.371,0.555 0.56,1.231 0.56,1.996 0,0.727 -0.168,1.352 -0.5,1.854 C 1.867,4.381 1.459,4.779 0.996,5.057 0.781,5.191 0.514,5.299 0.209,5.365 -0.092,5.43 -0.41,5.482 -0.77,5.514 -1.119,5.547 -1.473,5.572 -1.824,5.578 -2.176,5.58 -2.508,5.586 -2.818,5.586 H -8.053 V -8.809 h 6.959 c 0.705,0 1.342,0.116 1.895,0.352 0.541,0.24 1.008,0.553 1.373,0.934 0.371,0.386 0.652,0.835 0.846,1.328 0.185,0.498 0.281,1.015 0.281,1.543 0,0.888 -0.24,1.656 -0.711,2.275 -0.455,0.594 -1.106,0.996 -1.934,1.197"
             style="fill:#0f80cc;fill-opacity:1;fill-rule:nonzero;stroke:none"
             id="path160" />
        </g>
        <g
           id="g162"
           transform="translate(169.7832,97.125)">
          <path
             d="m 0,0 h -4.68 l 2.362,6.494 z m -3.379,8.383 -5.6,-14.395 h 2.057 l 1.602,4.303 H 0.643 L 2.188,-5.977 2.205,-6.012 H 4.426 L -1.203,8.383 Z"
             style="fill:#0f80cc;fill-opacity:1;fill-rule:nonzero;stroke:none"
             id="path164" />
        </g>
        <g
           id="g166"
           transform="translate(178.8047,103.7949)">
          <path
             d="m 0,0 h 4.662 c 0.867,0 1.51,-0.225 1.895,-0.658 0.39,-0.447 0.586,-1.022 0.586,-1.725 0,-0.513 -0.09,-0.93 -0.26,-1.244 C 6.709,-3.939 6.473,-4.193 6.18,-4.387 5.887,-4.576 5.541,-4.701 5.15,-4.766 4.76,-4.834 4.338,-4.869 3.9,-4.869 H 0 Z m 9.207,-11.777 c -0.103,0.312 -0.176,0.644 -0.232,0.982 -0.049,0.34 -0.08,0.697 -0.098,1.055 -0.01,0.355 -0.029,0.711 -0.059,1.062 C 8.779,-8.334 8.721,-8 8.646,-7.668 8.574,-7.35 8.457,-7.051 8.301,-6.787 8.139,-6.514 7.93,-6.289 7.664,-6.1 7.43,-5.93 7.131,-5.801 6.777,-5.717 7.586,-5.463 8.184,-5.02 8.563,-4.389 8.955,-3.73 9.16,-2.955 9.16,-2.082 9.16,-0.91 8.764,0.025 7.988,0.697 7.215,1.373 6.133,1.713 4.76,1.713 H -2.018 V -12.682 H 0 v 6.106 h 4.58 c 0.459,0 0.824,-0.074 1.094,-0.211 0.273,-0.137 0.498,-0.317 0.662,-0.543 0.168,-0.221 0.293,-0.492 0.371,-0.801 0.08,-0.312 0.148,-0.644 0.197,-0.982 0.069,-0.35 0.108,-0.703 0.121,-1.055 l 0.014,-0.379 c 0.006,-0.221 0.014,-0.43 0.025,-0.631 0.014,-0.32 0.045,-0.599 0.092,-0.859 0.051,-0.262 0.139,-0.473 0.285,-0.631 l 2.28,-0.014 -0.073,0.092 c -0.195,0.235 -0.343,0.508 -0.441,0.813"
             style="fill:#0f80cc;fill-opacity:1;fill-rule:nonzero;stroke:none"
             id="path168" />
        </g>
        <g
           id="g170"
           transform="translate(202.3105,96.5566)">
          <path
             d="m 0,0 c -0.039,-0.584 -0.158,-1.131 -0.359,-1.623 -0.196,-0.5 -0.469,-0.936 -0.815,-1.295 -0.346,-0.357 -0.76,-0.639 -1.244,-0.85 -0.475,-0.197 -1.027,-0.304 -1.645,-0.304 -0.841,0 -1.572,0.164 -2.175,0.478 -0.606,0.313 -1.106,0.742 -1.492,1.272 -0.385,0.531 -0.676,1.164 -0.86,1.879 -0.181,0.718 -0.277,1.49 -0.277,2.298 0,0.737 0.096,1.463 0.277,2.147 0.184,0.676 0.475,1.293 0.86,1.83 0.384,0.527 0.884,0.957 1.48,1.275 0.604,0.313 1.328,0.471 2.168,0.471 0.98,0 1.84,-0.252 2.557,-0.75 0.714,-0.498 1.177,-1.256 1.388,-2.246 l 0.01,-0.045 H 1.885 L 1.875,4.602 C 1.768,5.369 1.535,6.053 1.189,6.639 0.838,7.219 0.395,7.713 -0.127,8.104 -0.652,8.488 -1.258,8.787 -1.93,8.99 -2.598,9.191 -3.316,9.295 -4.063,9.295 -5.164,9.295 -6.152,9.088 -6.994,8.693 -7.848,8.303 -8.564,7.756 -9.141,7.07 -9.707,6.389 -10.145,5.578 -10.438,4.666 -10.732,3.75 -10.881,2.76 -10.881,1.717 c 0,-1.041 0.139,-2.031 0.412,-2.942 0.274,-0.906 0.694,-1.707 1.242,-2.377 0.547,-0.669 1.248,-1.203 2.079,-1.587 0.832,-0.379 1.816,-0.573 2.927,-0.573 1.83,0 3.301,0.508 4.358,1.516 1.058,1.004 1.691,2.43 1.875,4.232 L 2.021,0.051 H 0.004 Z"
             style="fill:#0f80cc;fill-opacity:1;fill-rule:nonzero;stroke:none"
             id="path172" />
        </g>
        <g
           id="g174"
           transform="translate(209.7441,97.6523)">
          <path
             d="M 0,0 H 7.422 V 1.717 H 0 V 6.143 H 7.961 V 7.855 H -2.014 V -6.539 H 8.02 v 1.713 H 0 Z"
             style="fill:#0f80cc;fill-opacity:1;fill-rule:nonzero;stroke:none"
             id="path176" />
        </g>
        <g
           id="g178"
           transform="translate(223.623,105.5078)">
          <path
             d="m 0,0 h -2.012 v -14.395 h 9.576 v 1.713 H 0 Z"
             style="fill:#0f80cc;fill-opacity:1;fill-rule:nonzero;stroke:none"
             id="path180" />
        </g>
        <g
           id="g182"
           transform="translate(238.7734,92.4844)">
          <path
             d="m 0,0 c -0.857,0 -1.602,0.172 -2.213,0.504 -0.617,0.332 -1.127,0.781 -1.523,1.34 -0.393,0.547 -0.686,1.174 -0.871,1.869 -0.184,0.691 -0.276,1.4 -0.276,2.115 0,0.707 0.092,1.42 0.276,2.113 0.185,0.694 0.478,1.325 0.871,1.873 0.396,0.549 0.906,0.999 1.523,1.329 C -1.6,11.48 -0.854,11.65 0,11.65 0.852,11.65 1.596,11.48 2.213,11.143 2.824,10.813 3.334,10.367 3.732,9.814 4.123,9.268 4.416,8.635 4.604,7.941 4.787,7.248 4.883,6.535 4.883,5.828 4.883,5.113 4.787,4.404 4.604,3.713 4.416,3.016 4.123,2.385 3.732,1.844 3.334,1.285 2.826,0.836 2.213,0.504 1.602,0.172 0.854,0 0,0 M 5.162,11.064 C 4.59,11.76 3.861,12.32 3.002,12.742 2.148,13.154 1.135,13.367 0,13.367 c -1.133,0 -2.146,-0.213 -3.006,-0.625 C -3.865,12.32 -4.59,11.76 -5.164,11.064 -5.742,10.363 -6.18,9.559 -6.465,8.654 -6.756,7.756 -6.9,6.807 -6.9,5.828 c 0,-0.976 0.144,-1.932 0.435,-2.83 0.285,-0.9 0.723,-1.713 1.301,-2.41 0.568,-0.695 1.297,-1.25 2.158,-1.666 0.858,-0.41 1.867,-0.611 3.006,-0.611 1.135,0 2.148,0.201 3.002,0.611 0.859,0.416 1.588,0.971 2.16,1.666 0.574,0.693 1.012,1.51 1.303,2.41 0.285,0.898 0.431,1.854 0.431,2.83 0,0.979 -0.146,1.928 -0.431,2.826 -0.291,0.905 -0.729,1.713 -1.303,2.41"
             style="fill:#0f80cc;fill-opacity:1;fill-rule:nonzero;stroke:none"
             id="path184" />
        </g>
        <g
           id="g186"
           transform="translate(258.8535,94.0039)">
          <path
             d="M 0,0 -7.469,11.504 H -9.578 V -2.891 h 1.912 V 8.502 L -0.25,-2.891 H 1.918 V 11.504 H 0 Z"
             style="fill:#0f80cc;fill-opacity:1;fill-rule:nonzero;stroke:none"
             id="path188" />
        </g>
        <g
           id="g190"
           transform="translate(272.5566,97.125)">
          <path
             d="m 0,0 h -4.682 l 2.358,6.494 z M -3.379,8.383 -8.984,-6.012 h 2.062 l 1.598,4.303 H 0.643 L 2.188,-5.977 2.199,-6.012 H 4.422 L -1.203,8.383 Z"
             style="fill:#0f80cc;fill-opacity:1;fill-rule:nonzero;stroke:none"
             id="path192" />
        </g>
        <g
           id="g194"
           transform="translate(277.6465,102.7344)">
          <path
             d="M 0,0 H 4.277 V -11.629 H 7.533 V 0 h 4.272 V 2.754 H 0 Z"
             style="fill:#0f80cc;fill-opacity:1;fill-rule:nonzero;stroke:none"
             id="path196" />
        </g>
        <g
           id="g198"
           transform="translate(295.3184,97.2402)">
          <path
             d="M 0,0 H 6.914 V 2.557 H 0 V 5.494 H 7.537 V 8.248 H -3.25 V -6.135 H 7.695 v 2.754 H 0 Z"
             style="fill:#0f80cc;fill-opacity:1;fill-rule:nonzero;stroke:none"
             id="path200" />
        </g>
        <g
           id="g202"
           transform="translate(315.6875,96.6602)">
          <path
             d="m 0,0 c -0.26,-1.998 -1.414,-3.145 -3.184,-3.145 -2.818,0 -3.822,2.438 -3.822,4.721 0,1.135 0.279,4.842 3.822,4.842 1.549,0 2.866,-1.053 3.061,-2.453 L -0.115,3.92 H 3.033 L 3.029,3.98 c -0.361,3.149 -2.8,5.192 -6.213,5.192 -4.232,0 -7.07,-3.053 -7.07,-7.596 0,-4.4 2.904,-7.474 7.07,-7.474 3.522,0 6.01,2.316 6.334,5.886 L 3.156,0.053 H 0.002 Z"
             style="fill:#0f80cc;fill-opacity:1;fill-rule:nonzero;stroke:none"
             id="path204" />
        </g>
        <g
           id="g206"
           transform="translate(330.0503,100.0137)">
          <path
             d="M 0,0 H -5.664 V 5.475 H -8.92 V -8.908 h 3.256 v 6.154 H 0 V -8.908 H 3.248 V 5.475 H 0 Z"
             style="fill:#0f80cc;fill-opacity:1;fill-rule:nonzero;stroke:none"
             id="path208" />
        </g>
        <path
           d="M 620.779,78.66 H 146.481 v 1.529 h 474.298 z"
           style="fill:#0f80cc;fill-opacity:1;fill-rule:nonzero;stroke:none"
           id="path210" />
      </g>
    </g>
  </g>
</svg>
